# xmcd
#
# Track frame offsets: 
#        187
#        13105
#        23267
#        37267
#        56687
#        69130
#        87195
#        101482
#        118802
#        134840
#        151732
#        166000
#        179717
#        193165
#        212152
#        227137
#        241775
#        256592
#        274610
#        289632
#        300590
#
# Disc length: 4162 seconds
#
# Revision: 0
# Processed by: cddbd v1.4PL0 Copyright (c) Steve Scherf et al.
# Submitted via: ExactAudioCopy v0.90a11
#
DISCID=1b104015
DTITLE=Lyle Lovett - Lyle Lovett-Pontiac
DYEAR=1900
DGENRE=
TTITLE0=Cowboy Man
TTITLE1=God Will
TTITLE2=Farther Down the Line
TTITLE3=This Old Porch
TTITLE4=Why I Don't Know
TTITLE5=If I Were the Man You Wanted
TTITLE6=You Can't Resist It
TTITLE7=The Waltzing Fool
TTITLE8=An Acceptable Level of Ecstasy (The Wedding Song)
TTITLE9=Closing Time
TTITLE10=If I Had A Boat
TTITLE11=Give Me Back My Heart
TTITLE12=I Loved You Yesterday
TTITLE13=Walk Through The Bottomland
TTITLE14=L.A. County
TTITLE15=She's No Lady
TTITLE16=M-O-N-E-Y
TTITLE17=Black And Blue
TTITLE18=Simple Song
TTITLE19=Pontiac
TTITLE20=She's Hot To Go
EXTD=
EXTT0=
EXTT1=
EXTT2=
EXTT3=
EXTT4=
EXTT5=
EXTT6=
EXTT7=
EXTT8=
EXTT9=
EXTT10=
EXTT11=
EXTT12=
EXTT13=
EXTT14=
EXTT15=
EXTT16=
EXTT17=
EXTT18=
EXTT19=
EXTT20=
PLAYORDER=
